<svg width="32" height="29" viewBox="0 0 32 29" fill="none" xmlns="http://www.w3.org/2000/svg">
<g filter="url(#filter0_d_464219_1352)">
<g clip-path="url(#clip0_464219_1352)">
<path d="M13 12C14.6575 12 16 10.6575 16 9C16 7.3425 14.6575 6 13 6C11.3425 6 10 7.3425 10 9C10 10.6575 11.3425 12 13 12ZM13 13.5C10.9975 13.5 7 14.505 7 16.5V17.25C7 17.6625 7.3375 18 7.75 18H18.25C18.6625 18 19 17.6625 19 17.25V16.5C19 14.505 15.0025 13.5 13 13.5Z" fill="#4D5AE5"/>
</g>
<line x1="26.625" y1="3.625" x2="26.625" y2="20.375" stroke="#2E2F42" stroke-width="1.25" stroke-linecap="round"/>
</g>
<defs>
<filter id="filter0_d_464219_1352" x="0" y="0" width="31.25" height="32" filterUnits="userSpaceOnUse" color-interpolation-filters="sRGB">
<feFlood flood-opacity="0" result="BackgroundImageFix"/>
<feColorMatrix in="SourceAlpha" type="matrix" values="0 0 0 0 0 0 0 0 0 0 0 0 0 0 0 0 0 0 127 0" result="hardAlpha"/>
<feOffset dy="4"/>
<feGaussianBlur stdDeviation="2"/>
<feComposite in2="hardAlpha" operator="out"/>
<feColorMatrix type="matrix" values="0 0 0 0 0 0 0 0 0 0 0 0 0 0 0 0 0 0 0.25 0"/>
<feBlend mode="normal" in2="BackgroundImageFix" result="effect1_dropShadow_464219_1352"/>
<feBlend mode="normal" in="SourceGraphic" in2="effect1_dropShadow_464219_1352" result="shape"/>
</filter>
<clipPath id="clip0_464219_1352">
<rect width="18" height="18" fill="white" transform="translate(4 3)"/>
</clipPath>
</defs>
</svg>
